<?xml version="1.0" encoding="utf-8"?>
<svg viewBox="7.467 97.646 501.723 123.203" xmlns="http://www.w3.org/2000/svg">
  <g transform="matrix(0.1, 0, 0, -0.1, -26.686453, 185.007591)" fill="#000000" stroke="none" style="shape-rendering: geometricprecision;">
    <path d="M 989.072 674.303 C 833.493 645.476 687.223 574.092 615.416 494.472 C 579.514 453.29 600.791 462.899 647.331 506.827 C 679.244 538.401 813.547 602.921 911.948 633.121 C 1044.92 675.676 1316.186 668.813 1446.499 619.393 C 1563.516 576.838 1664.577 516.437 1705.798 465.644 C 1870.685 263.849 1798.879 29.107 1530.273 -102.678 C 1425.224 -153.469 1393.311 -160.334 1393.311 -128.76 C 1393.311 -102.678 1316.186 -12.076 1293.581 -12.076 C 1284.273 -12.076 1270.975 -3.839 1262.998 5.769 C 1251.029 19.498 1259.008 29.107 1294.91 49.698 C 1352.088 81.271 1390.651 134.809 1413.257 211.684 C 1429.214 265.221 1433.203 269.34 1474.425 266.594 C 1499.69 265.221 1539.582 269.34 1563.516 277.576 C 1602.078 291.304 1606.068 296.796 1606.068 346.214 C 1606.068 376.415 1599.42 413.48 1592.771 428.58 C 1575.484 460.153 1511.656 495.845 1471.764 495.845 C 1455.808 495.845 1409.268 519.182 1366.715 548.01 C 1248.37 630.376 1079.494 653.713 1001.039 600.175 C 959.818 572.721 959.818 558.992 997.051 531.537 C 1018.326 516.437 1058.219 509.573 1135.342 509.573 C 1301.558 509.573 1361.397 478 1301.558 421.717 C 1278.954 399.751 1270.975 399.751 1180.553 421.717 C 1127.365 434.07 1056.887 440.934 1024.974 436.816 C 957.159 429.953 868.067 372.297 837.483 317.386 C 818.866 285.813 809.558 280.322 774.984 285.813 C 731.105 292.677 661.958 248.748 661.958 214.428 C 661.958 182.856 717.807 152.656 777.645 152.656 C 808.229 152.656 837.483 147.165 841.473 138.928 C 848.121 126.572 884.023 115.591 986.412 90.881 L 1024.974 82.644 L 995.72 51.071 C 981.093 34.597 967.797 14.007 967.797 5.769 C 967.797 -13.449 1027.635 -39.531 1072.846 -39.531 C 1111.407 -39.531 1172.576 -76.596 1237.733 -138.37 L 1274.964 -174.062 L 1233.743 -183.671 C 1168.586 -198.772 1011.676 -178.18 890.671 -139.743 C 614.087 -50.514 471.806 137.555 527.655 342.095 C 535.634 366.805 535.634 383.279 528.984 379.161 C 509.038 366.805 486.434 221.293 495.742 167.755 C 546.272 -109.543 845.46 -289.374 1221.774 -267.41 C 1481.073 -253.681 1685.852 -141.116 1776.274 35.97 C 1824.144 130.691 1826.803 294.05 1781.592 383.279 C 1721.754 499.963 1587.451 600.175 1419.905 652.34 C 1334.803 679.795 1083.483 692.15 989.072 674.303 Z M 1269.646 563.111 C 1348.101 535.655 1406.607 495.845 1365.386 495.845 C 1354.749 497.218 1332.142 505.455 1313.527 516.437 C 1292.251 528.791 1239.062 535.655 1160.607 537.028 C 1039.602 537.028 997.051 549.382 1013.008 576.838 C 1028.964 601.548 1181.882 594.684 1269.646 563.111 Z M 1516.975 451.917 C 1554.209 432.697 1578.143 381.906 1570.165 342.095 C 1562.186 296.796 1536.921 291.304 1439.851 309.149 C 1395.97 318.759 1393.311 316.013 1393.311 280.322 C 1391.98 219.92 1348.101 133.436 1292.251 86.763 C 1233.743 37.343 1203.16 27.735 1241.72 71.663 C 1259.008 90.881 1266.985 121.082 1266.985 162.264 C 1266.985 213.057 1260.337 229.53 1229.754 256.984 C 1173.905 306.403 1136.671 299.54 1191.191 250.121 C 1247.039 196.584 1249.7 127.945 1197.841 77.153 C 1177.895 57.935 1156.617 42.834 1151.299 42.834 C 1144.651 42.834 1140.661 37.343 1140.661 30.48 C 1140.661 23.616 1169.915 7.142 1205.818 -5.212 C 1282.944 -31.294 1340.121 -80.714 1340.121 -121.896 C 1340.121 -145.234 1334.803 -149.353 1310.867 -142.489 C 1293.581 -136.997 1262.998 -115.033 1240.391 -94.441 C 1188.532 -45.022 1145.98 -23.058 1088.802 -16.195 C 1006.358 -6.585 1003.699 -2.466 1036.943 44.207 C 1066.196 84.017 1066.196 86.763 1043.591 104.609 C 1030.293 114.219 991.73 126.572 957.159 132.063 C 922.586 136.182 880.033 151.283 861.419 162.264 C 844.131 174.619 805.568 185.601 774.984 185.601 C 731.105 186.974 720.465 192.465 717.807 215.801 C 712.488 255.612 748.39 267.967 798.92 241.885 C 820.195 230.903 840.141 221.293 841.473 221.293 C 842.802 221.293 850.779 246.003 860.087 276.203 C 893.331 391.515 1027.635 440.934 1180.553 394.261 C 1281.612 362.688 1296.24 365.433 1349.43 427.207 C 1393.311 478 1402.619 482.117 1445.17 473.881 C 1471.764 468.39 1503.679 458.78 1516.975 451.917 Z" style="fill: rgb(3, 38, 76);"/>
    <path d="M 1512.987 386.025 C 1499.69 377.788 1498.359 368.178 1506.338 359.942 C 1514.317 351.705 1527.614 350.332 1539.582 358.569 C 1552.879 366.805 1554.209 376.415 1546.23 384.652 C 1538.251 392.888 1524.954 394.261 1512.987 386.025 Z" style="fill: rgb(3, 38, 76);"/>
    <path d="M 675.254 495.845 C 675.254 487.608 724.455 482.117 794.93 482.117 C 865.406 482.117 914.607 487.608 914.607 495.845 C 914.607 504.082 865.406 509.573 794.93 509.573 C 724.455 509.573 675.254 504.082 675.254 495.845 Z" style="fill: rgb(3, 38, 76);"/>
    <path d="M 648.66 427.207 C 648.66 418.971 683.234 413.48 727.115 413.48 C 770.995 413.48 810.887 420.344 814.877 427.207 C 820.195 435.443 790.941 440.934 736.424 440.934 C 687.223 440.934 648.66 435.443 648.66 427.207 Z" style="fill: rgb(3, 38, 76);"/>
    <path d="M 615.416 372.297 C 611.429 365.433 615.416 354.451 626.056 350.332 C 656.64 337.978 774.984 350.332 772.326 365.433 C 767.007 384.652 626.056 391.515 615.416 372.297 Z" style="fill: rgb(3, 38, 76);"/>
    <g id="g14" transform="matrix(10, 0, 0, -10, 124.732819, 878.467407)">
      <g id="g20" transform="translate(329.6772,316.9189)"/>
      <g id="g24" transform="translate(325.6143,316.9531)"/>
      <g id="g28" transform="translate(189.7051,337.5469)"/>
      <g id="g32" transform="translate(279.0542,306.6982)"/>
      <g id="g36" transform="translate(215.7334,290.0596)"/>
      <g id="g40" transform="translate(215.7334,272.79)"/>
      <g id="g44" transform="translate(372.3848,355.1846)">
        <path id="path46" class="st0" d="M-162.45-323.23V-298h-10.08v-23.21c0-11.27,5.67-16.87,16.94-16.87c5.08,0,8.96,1.12,11.79,3.36 c2.84-2.16,6.72-3.21,11.8-3.21c11.27,0,16.87,5.6,16.8,16.87v23.22h-5.15c-3.28-0.23-4.93-1.79-4.93-4.93v-20.3 c-0.22-4.11-2.46-6.12-6.87-6.12c-4.4,0-6.64,2.02-6.72,6.12V-298h-10v-25.23c-0.23-4.11-2.46-6.12-6.87-6.12 C-160.14-329.36-162.38-327.34-162.45-323.23" style="fill: rgb(3, 38, 76);"/>
      </g>
      <g id="g48" transform="translate(491.0654,348.9932)">
        <path id="path50" class="st0" d="M-185.21-312.04c0.3-12.77,6.61-19.86,19.82-19.86h3v10.3l-4.61,0.1c-5.52,0-8.12,3.56-8.12,9.31 v20.53h-10.08V-312.04z" style="fill: rgb(3, 38, 76);"/>
      </g>
      <g id="g52" transform="translate(604.4424,344.4316)">
        <path id="path54" class="st0" d="M-206.94-303.79v-3.23c-2.31,0.97-5,1.37-7.91,1.96c-3.96,0.75-5.97,2.61-5.97,5.52 c0.22,3.14,1.87,4.63,5,4.63C-210.3-294.91-206.94-298.19-206.94-303.79 M-220.18-314.95l-9.24-0.01 c0.35-7.63,4.19-12.71,15.47-12.71c10.9,0,16.42,3.58,16.65,10.9v13.44c0,10.9-6.57,15.75-17.24,16.5 c-9.48,0.75-16.05-3.66-16.05-12.39c0.22-9.48,7.09-12.02,17.09-12.99c4.25-0.52,6.42-1.79,6.42-3.96 c-0.22-2.24-2.31-3.31-6.42-3.36C-218.16-319.6-219.66-316.82-220.18-314.95" style="fill: rgb(3, 38, 76);"/>
      </g>
      <g id="g56" transform="translate(636.0684,348.5366)">
        <path id="path58" class="st0" d="M-213.01-311.21c-0.07,7.99,2.61,12.02,8.29,12.02c5.67,0,8.51-4.03,8.51-12.02 c-0.22-7.61-2.98-11.35-8.36-11.35C-209.95-322.56-212.71-318.83-213.01-311.21 M-186.36-344.04v35.59 c0,11.87-6.2,17.77-18.51,17.69c-12.24-0.23-18.36-6.87-18.36-20c0-13.44,5.23-20.3,15.75-20.68c4.93,0,8.74,2.02,11.27,6.12 v-12.59l0.02-1.11C-192.91-343.92-186.36-344.04-186.36-344.04" style="fill: rgb(3, 38, 76);"/>
      </g>
      <g id="g60" transform="translate(450.3125,316.3428)">
        <path id="path62" class="st0" d="M-177.39-253h2.6v52.3h-9.93v-45.91C-184.72-248.1-181.64-253-177.39-253" style="fill: rgb(3, 38, 76);"/>
      </g>
      <g id="g68" transform="translate(467.5215,361.2886)">
        <path id="path70" class="st0" d="M-180.69-334.27c-1.26-1.39-3.19-2.08-5.77-2.08c-1.69,0-3.09,0.29-4.2,0.86 c-1.12,0.57-2.01,1.28-2.68,2.12c-0.67,0.84-1.14,1.74-1.41,2.68c-0.27,0.94-0.43,1.79-0.48,2.53h17.19 C-178.55-330.85-179.43-332.88-180.69-334.27 M-192.64-314.03c1.59,1.54,3.87,2.31,6.85,2.31c2.13,0,3.97-0.53,5.51-1.6 c1.54-1.07,2.48-2.2,2.83-3.39h9.3c-1.49,4.61-3.77,7.91-6.85,9.9c-3.08,1.99-6.8,2.98-11.16,2.98c-3.03,0-5.76-0.48-8.19-1.45 c-2.43-0.97-4.49-2.34-6.18-4.13c-1.69-1.79-2.99-3.92-3.91-6.4c-0.92-2.48-1.38-5.21-1.38-8.19c0-2.88,0.47-5.56,1.41-8.04 c0.94-2.48,2.28-4.62,4.02-6.44c1.74-1.81,3.81-3.24,6.21-4.28c2.41-1.04,5.07-1.56,8-1.56c3.27,0,6.13,0.63,8.56,1.9 c2.43,1.26,4.43,2.97,5.99,5.1c1.56,2.13,2.69,4.57,3.39,7.29c0.69,2.73,0.94,5.58,0.74,8.56h-27.76 C-195.09-318.05-194.23-315.57-192.64-314.03" style="fill: rgb(3, 38, 76);"/>
      </g>
      <g id="g72" transform="translate(546.9404,364.02)">
        <path id="path74" class="st0" d="M-195.92-339.21c-1.7,0-3.13,0.39-4.29,1.16c-1.15,0.78-2.09,1.78-2.82,3.01 c-0.73,1.23-1.24,2.58-1.54,4.06c-0.3,1.48-0.45,2.94-0.45,4.4c0,1.4,0.15,2.83,0.45,4.28c0.3,1.45,0.79,2.77,1.47,3.95 c0.68,1.18,1.59,2.14,2.74,2.89c1.15,0.75,2.56,1.13,4.21,1.13c2.56,0,4.52-0.71,5.9-2.14c1.38-1.43,2.24-3.35,2.59-5.75h10.3 c-0.7,5.16-2.71,9.1-6.01,11.8c-3.31,2.71-7.54,4.06-12.7,4.06c-2.91,0-5.57-0.49-8.01-1.47c-2.43-0.98-4.5-2.34-6.2-4.1 c-1.7-1.75-3.03-3.85-3.98-6.28c-0.95-2.43-1.43-5.1-1.43-8.01c0-3.01,0.44-5.8,1.32-8.38c0.88-2.58,2.17-4.81,3.87-6.69 c1.7-1.88,3.78-3.35,6.24-4.4c2.45-1.05,5.26-1.58,8.42-1.58c2.3,0,4.52,0.3,6.65,0.9c2.13,0.6,4.03,1.52,5.71,2.74 c1.68,1.23,3.04,2.76,4.1,4.58c1.05,1.83,1.65,4,1.8,6.5h-10.45C-188.73-336.98-191.36-339.21-195.92-339.21" style="fill: rgb(3, 38, 76);"/>
      </g>
      <g id="g76" transform="translate(690.4863,342.9561)">
        <path id="path78" class="st0" d="M-223.44-301.12c0.3,1.48,0.81,2.81,1.54,3.98c0.73,1.18,1.69,2.12,2.89,2.82 c1.2,0.7,2.71,1.05,4.51,1.05c1.8,0,3.32-0.35,4.55-1.05c1.23-0.7,2.2-1.64,2.93-2.82c0.73-1.18,1.24-2.5,1.54-3.98 c0.3-1.48,0.45-2.99,0.45-4.55c0-1.55-0.15-3.08-0.45-4.59c-0.3-1.5-0.82-2.83-1.54-3.98c-0.73-1.15-1.7-2.09-2.93-2.82 c-1.23-0.73-2.74-1.09-4.55-1.09c-1.8,0-3.31,0.36-4.51,1.09c-1.2,0.73-2.17,1.67-2.89,2.82c-0.73,1.15-1.24,2.48-1.54,3.98 s-0.45,3.03-0.45,4.59C-223.89-304.12-223.74-302.6-223.44-301.12 M-233.14-314.13c0.95-2.53,2.3-4.68,4.06-6.46 c1.75-1.78,3.86-3.16,6.31-4.13c2.45-0.98,5.21-1.47,8.27-1.47c3.06,0,5.83,0.49,8.31,1.47c2.48,0.98,4.6,2.36,6.35,4.13 c1.75,1.78,3.11,3.93,4.06,6.46c0.95,2.53,1.43,5.35,1.43,8.46c0,3.11-0.48,5.91-1.43,8.42c-0.95,2.51-2.31,4.65-4.06,6.43 c-1.75,1.78-3.87,3.15-6.35,4.1c-2.48,0.95-5.25,1.43-8.31,1.43c-3.06,0-5.81-0.48-8.27-1.43c-2.46-0.95-4.56-2.32-6.31-4.1 c-1.75-1.78-3.11-3.92-4.06-6.43c-0.95-2.51-1.43-5.31-1.43-8.42C-234.57-308.78-234.09-311.59-233.14-314.13" style="fill: rgb(3, 38, 76);"/>
      </g>
      <path id="path88" class="st0" d="M296.1,72.39h-9.93v-9.04h9.93V72.39z" style="fill: rgb(3, 38, 76);"/>
      <path id="path90" class="st0" d="M296.1,115.64h-9.93V76.93h9.93V115.64z" style="fill: rgb(3, 38, 76);"/>
      <g id="g84_1_" transform="translate(606.3789,289.2861)">
        <path id="path86_1_" class="st0" d="M-276.86-204.07c-1.26-1.39-3.19-2.08-5.77-2.08c-1.69,0-3.09,0.29-4.2,0.86 c-1.12,0.57-2.01,1.28-2.68,2.12c-0.67,0.84-1.14,1.74-1.41,2.68c-0.27,0.94-0.43,1.79-0.48,2.53h17.19 C-274.71-200.65-275.59-202.68-276.86-204.07 M-288.8-183.83c1.59,1.54,3.87,2.31,6.85,2.31c2.13,0,3.97-0.53,5.51-1.6 c1.54-1.07,2.48-2.2,2.83-3.39h9.3c-1.49,4.61-3.77,7.91-6.85,9.9c-3.08,1.99-6.8,2.98-11.16,2.98c-3.03,0-5.76-0.48-8.19-1.45 c-2.43-0.97-4.49-2.34-6.18-4.13c-1.69-1.79-2.99-3.92-3.91-6.4c-0.92-2.48-1.38-5.21-1.38-8.19c0-2.88,0.47-5.56,1.41-8.04 c0.94-2.48,2.28-4.63,4.02-6.44c1.74-1.81,3.81-3.24,6.21-4.28c2.41-1.04,5.07-1.56,8-1.56c3.27,0,6.13,0.63,8.56,1.9 c2.43,1.26,4.43,2.96,5.99,5.1c1.56,2.13,2.69,4.57,3.39,7.29c0.69,2.73,0.94,5.58,0.74,8.56h-27.76 C-291.26-187.85-290.39-185.37-288.8-183.83" style="fill: rgb(3, 38, 76);"/>
      </g>
      <g id="g64_1_" transform="translate(513.6289,262.0811)">
        <path id="path66_1_" class="st0" d="M-147.2-154.88c-5.67,0-8.36-4.03-8.29-12.02c0.3-7.61,3.06-11.35,8.44-11.35 c5.37,0,8.14,3.73,8.36,11.35C-138.69-158.91-141.53-154.88-147.2-154.88 M-144.29-187.13c-4.92,0-8.66,2.02-11.2,6.12l0-17.73 h-1.12c-4.95,0.06-7.55,2.7-8.8,4.86v-0.34v30.08c0,11.87,6.2,17.77,18.51,17.69c12.24-0.23,18.36-6.87,18.36-20.01 C-128.54-179.89-133.76-186.76-144.29-187.13" style="fill: rgb(3, 38, 76);"/>
      </g>
      <g id="g80_1_" transform="translate(543.9404,276.9932)">
        <path id="path82_1_" class="st0" d="M-153.01-181.85c0.3-12.77,6.61-19.86,19.82-19.86h3v10.3l-4.61,0.1 c-5.52,0-8.12,3.56-8.12,9.31v20.53h-10.08V-181.85z" style="fill: rgb(3, 38, 76);"/>
      </g>
      <g id="g84_2_" transform="translate(606.3789,289.2861)">
        <path id="path86_2_" class="st0" d="M-164.98-204.08c-1.26-1.39-3.19-2.08-5.77-2.08c-1.69,0-3.09,0.29-4.2,0.86 c-1.12,0.57-2.01,1.28-2.68,2.12c-0.67,0.84-1.14,1.74-1.41,2.68c-0.27,0.94-0.43,1.79-0.48,2.53h17.19 C-162.84-200.65-163.72-202.69-164.98-204.08 M-176.93-183.83c1.59,1.54,3.87,2.31,6.85,2.31c2.13,0,3.97-0.53,5.51-1.6 c1.54-1.07,2.48-2.2,2.83-3.39h9.3c-1.49,4.61-3.77,7.91-6.85,9.9c-3.08,1.99-6.8,2.98-11.16,2.98c-3.03,0-5.76-0.48-8.19-1.45 c-2.43-0.97-4.49-2.34-6.18-4.13c-1.69-1.79-2.99-3.92-3.91-6.4c-0.92-2.48-1.38-5.21-1.38-8.19c0-2.88,0.47-5.56,1.41-8.04 c0.94-2.48,2.28-4.63,4.02-6.44c1.74-1.81,3.81-3.24,6.21-4.28c2.41-1.04,5.07-1.56,8-1.56c3.27,0,6.13,0.63,8.56,1.9 c2.43,1.26,4.43,2.96,5.99,5.1c1.56,2.13,2.69,4.57,3.39,7.29c0.69,2.73,0.94,5.58,0.74,8.56h-27.76 C-179.38-187.85-178.52-185.37-176.93-183.83" style="fill: rgb(3, 38, 76);"/>
      </g>
    </g>
    <g id="Ebene_x0020_1" transform="matrix(45.952339, 0, 0, -43.822189, 563.55407, 824.924552)" style="">
      <g id="_134236992">
        <g id="g30"/>
        <g id="g37"/>
      </g>
    </g>
  </g>
</svg>