<?xml version="1.0" encoding="utf-8"?>
<svg viewBox="38.765 48.456 465.474 159.599" style="shape-rendering: geometricprecision;" xmlns="http://www.w3.org/2000/svg">
  <defs>
    <radialGradient id="id0" gradientUnits="userSpaceOnUse" cy="17.801" cx="5.8109" r="11.428">
      <stop id="stop9" stop-color="#fff" offset="0"/>
      <stop id="stop11" stop-color="#FDF528" offset="0.302"/>
      <stop id="stop13" stop-color="#FFCE03" offset="0.5882"/>
      <stop id="stop15" stop-color="#FF9E67" offset="1"/>
    </radialGradient>
  </defs>
  <g id="g14" transform="matrix(1, 0, 0, 1, -18.924769, 69.163339)">
    <g id="g20" transform="translate(329.6772,316.9189)"/>
    <g id="g24" transform="translate(325.6143,316.9531)"/>
    <g id="g28" transform="translate(189.7051,337.5469)"/>
    <g id="g32" transform="translate(279.0542,306.6982)"/>
    <g id="g36" transform="translate(215.7334,290.0596)"/>
    <g id="g40" transform="translate(215.7334,272.79)"/>
    <g id="g44" transform="translate(372.3848,355.1846)">
      <path id="path46" class="st0" d="M-162.45-323.23V-298h-10.08v-23.21c0-11.27,5.67-16.87,16.94-16.87c5.08,0,8.96,1.12,11.79,3.36 c2.84-2.16,6.72-3.21,11.8-3.21c11.27,0,16.87,5.6,16.8,16.87v23.22h-5.15c-3.28-0.23-4.93-1.79-4.93-4.93v-20.3 c-0.22-4.11-2.46-6.12-6.87-6.12c-4.4,0-6.64,2.02-6.72,6.12V-298h-10v-25.23c-0.23-4.11-2.46-6.12-6.87-6.12 C-160.14-329.36-162.38-327.34-162.45-323.23" style="fill: rgb(3, 38, 76);"/>
    </g>
    <g id="g48" transform="translate(491.0654,348.9932)">
      <path id="path50" class="st0" d="M-185.21-312.04c0.3-12.77,6.61-19.86,19.82-19.86h3v10.3l-4.61,0.1c-5.52,0-8.12,3.56-8.12,9.31 v20.53h-10.08V-312.04z" style="fill: rgb(3, 38, 76);"/>
    </g>
    <g id="g52" transform="translate(604.4424,344.4316)">
      <path id="path54" class="st0" d="M-206.94-303.79v-3.23c-2.31,0.97-5,1.37-7.91,1.96c-3.96,0.75-5.97,2.61-5.97,5.52 c0.22,3.14,1.87,4.63,5,4.63C-210.3-294.91-206.94-298.19-206.94-303.79 M-220.18-314.95l-9.24-0.01 c0.35-7.63,4.19-12.71,15.47-12.71c10.9,0,16.42,3.58,16.65,10.9v13.44c0,10.9-6.57,15.75-17.24,16.5 c-9.48,0.75-16.05-3.66-16.05-12.39c0.22-9.48,7.09-12.02,17.09-12.99c4.25-0.52,6.42-1.79,6.42-3.96 c-0.22-2.24-2.31-3.31-6.42-3.36C-218.16-319.6-219.66-316.82-220.18-314.95" style="fill: rgb(3, 38, 76);"/>
    </g>
    <g id="g56" transform="translate(636.0684,348.5366)">
      <path id="path58" class="st0" d="M-213.01-311.21c-0.07,7.99,2.61,12.02,8.29,12.02c5.67,0,8.51-4.03,8.51-12.02 c-0.22-7.61-2.98-11.35-8.36-11.35C-209.95-322.56-212.71-318.83-213.01-311.21 M-186.36-344.04v35.59 c0,11.87-6.2,17.77-18.51,17.69c-12.24-0.23-18.36-6.87-18.36-20c0-13.44,5.23-20.3,15.75-20.68c4.93,0,8.74,2.02,11.27,6.12 v-12.59l0.02-1.11C-192.91-343.92-186.36-344.04-186.36-344.04" style="fill: rgb(3, 38, 76);"/>
    </g>
    <g id="g60" transform="translate(450.3125,316.3428)">
      <path id="path62" class="st0" d="M-177.39-253h2.6v52.3h-9.93v-45.91C-184.72-248.1-181.64-253-177.39-253" style="fill: rgb(3, 38, 76);"/>
    </g>
    <g id="g68" transform="translate(467.5215,361.2886)">
      <path id="path70" class="st0" d="M-180.69-334.27c-1.26-1.39-3.19-2.08-5.77-2.08c-1.69,0-3.09,0.29-4.2,0.86 c-1.12,0.57-2.01,1.28-2.68,2.12c-0.67,0.84-1.14,1.74-1.41,2.68c-0.27,0.94-0.43,1.79-0.48,2.53h17.19 C-178.55-330.85-179.43-332.88-180.69-334.27 M-192.64-314.03c1.59,1.54,3.87,2.31,6.85,2.31c2.13,0,3.97-0.53,5.51-1.6 c1.54-1.07,2.48-2.2,2.83-3.39h9.3c-1.49,4.61-3.77,7.91-6.85,9.9c-3.08,1.99-6.8,2.98-11.16,2.98c-3.03,0-5.76-0.48-8.19-1.45 c-2.43-0.97-4.49-2.34-6.18-4.13c-1.69-1.79-2.99-3.92-3.91-6.4c-0.92-2.48-1.38-5.21-1.38-8.19c0-2.88,0.47-5.56,1.41-8.04 c0.94-2.48,2.28-4.62,4.02-6.44c1.74-1.81,3.81-3.24,6.21-4.28c2.41-1.04,5.07-1.56,8-1.56c3.27,0,6.13,0.63,8.56,1.9 c2.43,1.26,4.43,2.97,5.99,5.1c1.56,2.13,2.69,4.57,3.39,7.29c0.69,2.73,0.94,5.58,0.74,8.56h-27.76 C-195.09-318.05-194.23-315.57-192.64-314.03" style="fill: rgb(3, 38, 76);"/>
    </g>
    <g id="g72" transform="translate(546.9404,364.02)">
      <path id="path74" class="st0" d="M-195.92-339.21c-1.7,0-3.13,0.39-4.29,1.16c-1.15,0.78-2.09,1.78-2.82,3.01 c-0.73,1.23-1.24,2.58-1.54,4.06c-0.3,1.48-0.45,2.94-0.45,4.4c0,1.4,0.15,2.83,0.45,4.28c0.3,1.45,0.79,2.77,1.47,3.95 c0.68,1.18,1.59,2.14,2.74,2.89c1.15,0.75,2.56,1.13,4.21,1.13c2.56,0,4.52-0.71,5.9-2.14c1.38-1.43,2.24-3.35,2.59-5.75h10.3 c-0.7,5.16-2.71,9.1-6.01,11.8c-3.31,2.71-7.54,4.06-12.7,4.06c-2.91,0-5.57-0.49-8.01-1.47c-2.43-0.98-4.5-2.34-6.2-4.1 c-1.7-1.75-3.03-3.85-3.98-6.28c-0.95-2.43-1.43-5.1-1.43-8.01c0-3.01,0.44-5.8,1.32-8.38c0.88-2.58,2.17-4.81,3.87-6.69 c1.7-1.88,3.78-3.35,6.24-4.4c2.45-1.05,5.26-1.58,8.42-1.58c2.3,0,4.52,0.3,6.65,0.9c2.13,0.6,4.03,1.52,5.71,2.74 c1.68,1.23,3.04,2.76,4.1,4.58c1.05,1.83,1.65,4,1.8,6.5h-10.45C-188.73-336.98-191.36-339.21-195.92-339.21" style="fill: rgb(3, 38, 76);"/>
    </g>
    <g id="g76" transform="translate(690.4863,342.9561)">
      <path id="path78" class="st0" d="M-223.44-301.12c0.3,1.48,0.81,2.81,1.54,3.98c0.73,1.18,1.69,2.12,2.89,2.82 c1.2,0.7,2.71,1.05,4.51,1.05c1.8,0,3.32-0.35,4.55-1.05c1.23-0.7,2.2-1.64,2.93-2.82c0.73-1.18,1.24-2.5,1.54-3.98 c0.3-1.48,0.45-2.99,0.45-4.55c0-1.55-0.15-3.08-0.45-4.59c-0.3-1.5-0.82-2.83-1.54-3.98c-0.73-1.15-1.7-2.09-2.93-2.82 c-1.23-0.73-2.74-1.09-4.55-1.09c-1.8,0-3.31,0.36-4.51,1.09c-1.2,0.73-2.17,1.67-2.89,2.82c-0.73,1.15-1.24,2.48-1.54,3.98 s-0.45,3.03-0.45,4.59C-223.89-304.12-223.74-302.6-223.44-301.12 M-233.14-314.13c0.95-2.53,2.3-4.68,4.06-6.46 c1.75-1.78,3.86-3.16,6.31-4.13c2.45-0.98,5.21-1.47,8.27-1.47c3.06,0,5.83,0.49,8.31,1.47c2.48,0.98,4.6,2.36,6.35,4.13 c1.75,1.78,3.11,3.93,4.06,6.46c0.95,2.53,1.43,5.35,1.43,8.46c0,3.11-0.48,5.91-1.43,8.42c-0.95,2.51-2.31,4.65-4.06,6.43 c-1.75,1.78-3.87,3.15-6.35,4.1c-2.48,0.95-5.25,1.43-8.31,1.43c-3.06,0-5.81-0.48-8.27-1.43c-2.46-0.95-4.56-2.32-6.31-4.1 c-1.75-1.78-3.11-3.92-4.06-6.43c-0.95-2.51-1.43-5.31-1.43-8.42C-234.57-308.78-234.09-311.59-233.14-314.13" style="fill: rgb(3, 38, 76);"/>
    </g>
    <path id="path88" class="st0" d="M296.1,72.39h-9.93v-9.04h9.93V72.39z" style="fill: rgb(3, 38, 76);"/>
    <path id="path90" class="st0" d="M296.1,115.64h-9.93V76.93h9.93V115.64z" style="fill: rgb(3, 38, 76);"/>
    <g id="g84_1_" transform="translate(606.3789,289.2861)">
      <path id="path86_1_" class="st0" d="M-276.86-204.07c-1.26-1.39-3.19-2.08-5.77-2.08c-1.69,0-3.09,0.29-4.2,0.86 c-1.12,0.57-2.01,1.28-2.68,2.12c-0.67,0.84-1.14,1.74-1.41,2.68c-0.27,0.94-0.43,1.79-0.48,2.53h17.19 C-274.71-200.65-275.59-202.68-276.86-204.07 M-288.8-183.83c1.59,1.54,3.87,2.31,6.85,2.31c2.13,0,3.97-0.53,5.51-1.6 c1.54-1.07,2.48-2.2,2.83-3.39h9.3c-1.49,4.61-3.77,7.91-6.85,9.9c-3.08,1.99-6.8,2.98-11.16,2.98c-3.03,0-5.76-0.48-8.19-1.45 c-2.43-0.97-4.49-2.34-6.18-4.13c-1.69-1.79-2.99-3.92-3.91-6.4c-0.92-2.48-1.38-5.21-1.38-8.19c0-2.88,0.47-5.56,1.41-8.04 c0.94-2.48,2.28-4.63,4.02-6.44c1.74-1.81,3.81-3.24,6.21-4.28c2.41-1.04,5.07-1.56,8-1.56c3.27,0,6.13,0.63,8.56,1.9 c2.43,1.26,4.43,2.96,5.99,5.1c1.56,2.13,2.69,4.57,3.39,7.29c0.69,2.73,0.94,5.58,0.74,8.56h-27.76 C-291.26-187.85-290.39-185.37-288.8-183.83" style="fill: rgb(3, 38, 76);"/>
    </g>
    <g id="g64_1_" transform="translate(513.6289,262.0811)">
      <path id="path66_1_" class="st0" d="M-147.2-154.88c-5.67,0-8.36-4.03-8.29-12.02c0.3-7.61,3.06-11.35,8.44-11.35 c5.37,0,8.14,3.73,8.36,11.35C-138.69-158.91-141.53-154.88-147.2-154.88 M-144.29-187.13c-4.92,0-8.66,2.02-11.2,6.12l0-17.73 h-1.12c-4.95,0.06-7.55,2.7-8.8,4.86v-0.34v30.08c0,11.87,6.2,17.77,18.51,17.69c12.24-0.23,18.36-6.87,18.36-20.01 C-128.54-179.89-133.76-186.76-144.29-187.13" style="fill: rgb(3, 38, 76);"/>
    </g>
    <g id="g80_1_" transform="translate(543.9404,276.9932)">
      <path id="path82_1_" class="st0" d="M-153.01-181.85c0.3-12.77,6.61-19.86,19.82-19.86h3v10.3l-4.61,0.1 c-5.52,0-8.12,3.56-8.12,9.31v20.53h-10.08V-181.85z" style="fill: rgb(3, 38, 76);"/>
    </g>
    <g id="g84_2_" transform="translate(606.3789,289.2861)">
      <path id="path86_2_" class="st0" d="M-164.98-204.08c-1.26-1.39-3.19-2.08-5.77-2.08c-1.69,0-3.09,0.29-4.2,0.86 c-1.12,0.57-2.01,1.28-2.68,2.12c-0.67,0.84-1.14,1.74-1.41,2.68c-0.27,0.94-0.43,1.79-0.48,2.53h17.19 C-162.84-200.65-163.72-202.69-164.98-204.08 M-176.93-183.83c1.59,1.54,3.87,2.31,6.85,2.31c2.13,0,3.97-0.53,5.51-1.6 c1.54-1.07,2.48-2.2,2.83-3.39h9.3c-1.49,4.61-3.77,7.91-6.85,9.9c-3.08,1.99-6.8,2.98-11.16,2.98c-3.03,0-5.76-0.48-8.19-1.45 c-2.43-0.97-4.49-2.34-6.18-4.13c-1.69-1.79-2.99-3.92-3.91-6.4c-0.92-2.48-1.38-5.21-1.38-8.19c0-2.88,0.47-5.56,1.41-8.04 c0.94-2.48,2.28-4.63,4.02-6.44c1.74-1.81,3.81-3.24,6.21-4.28c2.41-1.04,5.07-1.56,8-1.56c3.27,0,6.13,0.63,8.56,1.9 c2.43,1.26,4.43,2.96,5.99,5.1c1.56,2.13,2.69,4.57,3.39,7.29c0.69,2.73,0.94,5.58,0.74,8.56h-27.76 C-179.38-187.85-178.52-185.37-176.93-183.83" style="fill: rgb(3, 38, 76);"/>
    </g>
  </g>
  <g id="Ebene_x0020_1" transform="matrix(4.595234, 0, 0, 4.382219, 61.717847, 65.901872)" style="">
    <g id="_134236992">
      <path id="_134237928" class="fil0 str0" d="m7.2969 16.236c-3.1689-3.6887-5.5239-7.5603-7.0652-11.615l3.567-1.7656c2.0353 3.3353 3.7508 7.3131 5.1464 11.934 0.25149 0.8329 0.17469 1.5636-0.19866 1.8914-0.3736 0.3278-0.93347 0.15624-1.4496-0.44459z" style="fill: rgb(254, 236, 31); stroke: rgb(31, 26, 23); stroke-width: 0.215041px;"/>
      <path id="_132827512" class="fil1 str1" d="m7.4347 15.193c-3.5422-3.578-5.4853-7.4103-5.8292-11.497-0.021455-0.25482 0.057986-0.44646 0.21837-0.52688 0.16035-0.080417 0.35641-0.027022 0.53907 0.14694 2.7713 2.6397 4.7138 6.4334 5.8271 11.381 0.065138 0.28928 0.0026819 0.53309-0.16478 0.64313-0.16754 0.10984-0.3914 0.054289-0.59055-0.1469z" style="fill: none; stroke: rgb(31, 26, 23); stroke-width: 0.0812703px;"/>
      <path id="_134240328" class="fil0 str0" d="m0.23861 5.0193c-0.37311 3.3586 0.044983 4.2164 1.2542 2.5735 1.0866-1.4762 1.7889-3.007 2.4865-4.4979 0.045796-0.097931 0.018814-0.17778-0.072615-0.21537-0.091429-0.037588-0.28591-0.096468-0.4005-0.1078-0.29891-0.029582-0.67979-0.047828-0.97581-0.0015848-0.33552 0.052419-0.76016 0.21793-1.058 0.43512l-0.78064 0.56946-0.32923 0.50636c-0.069771 0.10732-0.074931 0.31842-0.086919 0.4198-0.012881 0.10821-0.025316 0.21459-0.036897 0.31838z" style="fill: rgb(254, 236, 31); stroke: rgb(31, 26, 23); stroke-width: 0.215041px;"/>
      <path id="_132826240" class="fil0 str0" d="m9.1478 13.887c-0.22882-5.6053 1.0913-10.05 3.9605-13.334 0.36677-0.41984 0.85785-0.55272 1.3154-0.35584 0.45755 0.1968 0.75041 0.6667 0.78442 1.2589 0.25251 4.4016-1.0204 8.7936-3.8184 13.176-0.33366 0.52241-0.86329 0.74505-1.3714 0.57625-0.5081-0.16892-0.84436-0.6791-0.87057-1.3211z" style="fill: rgb(254, 236, 31); stroke: rgb(31, 26, 23); stroke-width: 0.215041px;"/>
      <path id="_132770840" class="fil1 str1" d="m9.9834 13.448c-0.28079-4.9517 0.85334-8.7889 3.4025-11.512 0.15896-0.16973 0.35255-0.22166 0.53232-0.14279 0.17973 0.078832 0.29493 0.2662 0.31667 0.51521 0.32967 3.7784-0.77841 7.592-3.324 11.44-0.14881 0.225-0.36523 0.32171-0.57088 0.25499-0.20557-0.066886-0.34081-0.27758-0.35657-0.55601z" style="fill: none; stroke: rgb(31, 26, 23); stroke-width: 0.0812703px;"/>
      <circle id="_132771800" cy="20.082" cx="8.897" r="6.709" class="fil2 str2" style="fill: url(#id0); stroke: rgb(31, 26, 23); stroke-width: 0.286722px;"/>
      <circle id="_132771344" cy="18.723" cx="7.4372" r="1.4554" class="fil3 str3" style="fill: rgb(255, 255, 255); stroke: rgb(31, 26, 23); stroke-width: 0.143361px;"/>
      <circle id="_132770864" cy="18.723" cx="10.527" r="1.4554" class="fil3 str3" style="fill: rgb(255, 255, 255); stroke: rgb(31, 26, 23); stroke-width: 0.143361px;"/>
      <ellipse id="_132771248" rx=".41118" ry=".35428" cy="18.631" cx="10.283" class="fil4 str1" style="fill: rgb(31, 26, 23); stroke: rgb(31, 26, 23); stroke-width: 0.0812703px;"/>
      <ellipse id="_132826912" rx=".41118" ry=".35428" cy="18.631" cx="7.7437" class="fil4 str1" style="fill: rgb(31, 26, 23); stroke: rgb(31, 26, 23); stroke-width: 0.0812703px;"/>
      <g id="g30">
        <polyline id="_134240520" points="4.3399 20.119 9.7601 21.178 4.3399 21.144" class="fil1 str3" style="fill: none; stroke: rgb(31, 26, 23); stroke-width: 0.143361px;"/>
        <polyline id="_132827152" points="13.535 20.119 8.1152 21.178 13.535 21.144" class="fil1 str3" style="fill: none; stroke: rgb(31, 26, 23); stroke-width: 0.143361px;"/>
        <line id="_132827128" y2="22.004" class="fil1 str3" y1="21.178" x2="4.6787" x1="9.7601" style="fill: none; stroke: rgb(31, 26, 23); stroke-width: 0.143361px;"/>
        <line id="_134236896" y2="22.004" class="fil1 str3" y1="21.178" x2="13.197" x1="8.1152" style="fill: none; stroke: rgb(31, 26, 23); stroke-width: 0.143361px;"/>
      </g>
      <path id="_132827272" class="fil1 str3" d="m5.8919 22.403c2.0066 1.5877 4.0574 1.5877 6.1523 0" style="fill: none; stroke: rgb(31, 26, 23); stroke-width: 0.143361px;"/>
      <g id="g37">
        <rect id="_132771104" class="fil3 str3" height="2.8942" width="1.868" y="23.021" x="7.0311" style="fill: rgb(255, 255, 255); stroke: rgb(31, 26, 23); stroke-width: 0.143361px;"/>
        <rect id="_132826816" class="fil3 str3" height="2.8942" width="1.868" y="23.021" x="9.1111" style="fill: rgb(255, 255, 255); stroke: rgb(31, 26, 23); stroke-width: 0.143361px;"/>
      </g>
    </g>
  </g>
</svg>